<?xml version="1.0" encoding="utf-8"?>
<!-- Generator: Adobe Illustrator 20.1.0, SVG Export Plug-In . SVG Version: 6.00 Build 0)  -->
<svg version="1.1" id="Calque_1" xmlns="http://www.w3.org/2000/svg" xmlns:xlink="http://www.w3.org/1999/xlink" x="0px" y="0px"
	 viewBox="0 0 600 376.9" style="enable-background:new 0 0 600 376.9;" xml:space="preserve">
<style type="text/css">
	.st0{fill:#92836A;}
	.st1{fill:none;stroke:#92836A;stroke-width:2;stroke-miterlimit:10;}
</style>
<g id="Calque_0_copie_2_xA0_Image_1_">
</g>
<g>
	<path class="st0" d="M429.3,121.1c-0.2,1.9-0.4,3.3-0.4,4.6c0,1.1,0.3,2.2,0.5,3.2c1.2-0.3,2.4-0.5,3.5-0.9
		c0.5-0.2,0.8-0.8,1.3-1.1c1.4-0.7,2.9-1.4,4.3-2c0.2,1.5,0.3,2.9,0.5,4.7c1.9-1.2,3.8-2.7,6-3.7c1.5-0.6,3.4-0.5,5.1-0.7
		c-0.4,1.5-0.5,3.3-1.4,4.4c-2.7,3.3-5.8,6.3-8.3,10.1c3.7-1,7.3-2.2,11-2.9c3.3-0.6,6.8-0.7,10.2-0.5c1.1,0.1,2.1,1.9,3.1,3
		c-1,0.8-2,2.2-3.1,2.4c-4.6,1-9.3,1.7-14,2.5c-2.7,0.5-5.3,1.1-8,1.6c0,0.5,0,1,0,1.6c1.4,0.4,2.9,0.7,4.2,1.3
		c2.8,1.3,5.7,2.6,8.3,4.3c0.8,0.6,0.8,2.4,1.2,3.7c-1.2,0.3-2.4,1.1-3.5,0.9c-2.4-0.3-4.8-1.1-7.2-1.7c-0.2,0.4-0.5,0.8-0.7,1.2
		c2.1,2.1,4.4,4.1,6.3,6.5c0.9,1.1,1,2.9,1.5,4.3c-1.4-0.2-3-0.2-4.3-0.8c-2.7-1.1-5.3-2.5-8.5-3.2c1.5,3,3,6.1,4.5,9.1
		c-0.3,0.5-0.6,0.9-0.9,1.4c-2.8-1-5.7-1.7-8.4-2.9c-2.8-1.3-5.5-3-8.2-4.6c-0.4,0.3-0.8,0.6-1.2,0.9c2.7,4.3,5,9,8.3,12.9
		c1.3,1.5,4.7,1.5,7.2,1.5c10.5,0.1,21,0,31.5,0.1c1.7,0,3.3,0.5,5,0.8c0,0.6,0,1.2,0,1.9c-2.1,0.2-4.1,0.6-6.2,0.6
		c-4.7,0.2-5.6,1.7-3.4,6c2.1,4.1,4.1,8.2,6,12.4c1.7,3.7,4.3,5.9,8.5,6.3c4.4,0.4,8.9,0.8,13.3,1.5c1.2,0.2,3,1.1,3.3,2
		c0.3,1-0.7,2.7-1.6,3.7c-3.3,3.4-6.7,6.8-10.2,9.9c-2.8,2.5-3.6,5.4-2.8,8.9c1,4.5,2,9,2.7,13.5c0.2,1.5-0.5,3.2-0.7,4.8
		c-1.4-0.4-2.9-0.7-4.2-1.3c-4.7-2.4-9.3-5.2-14.1-7.4c-1.7-0.8-4.4-0.7-6.1,0.1c-5.1,2.3-9.8,5.3-14.8,7.9c-0.9,0.5-2.6,1-3,0.6
		c-0.8-0.7-1.3-2.3-1.1-3.3c0.8-4.7,1.8-9.3,2.8-14c0.9-4.3,0.1-7.8-3.5-10.8c-3.3-2.7-6.4-5.8-9.4-8.9c-1-1-1.7-2.8-1.5-4.1
		c0.1-0.8,2.2-1.6,3.5-1.8c4.1-0.6,8.3-1.1,12.4-1.4c4.6-0.3,7.4-2.6,9.1-6.7c1.7-3.9,3.7-7.8,5.7-11.6c2.4-4.7,1.6-6.4-3.7-6.4
		c-10.5-0.1-21-0.1-31.5,0c-10.8,0-21.6-0.1-32.4,0.1c-3.2,0.1-6.5,0.8-9.7,1.2c-0.9,0.1-1.7,0.2-2.6,0.2
		c-10.3-0.5-20.6-1.2-30.8-1.4c-14.1-0.3-28.2-0.1-42.3-0.1c-61.1,0-122.2,0.1-183.3,0.1c-1.6,0-3.1-0.5-4.7-0.8
		c0-0.5-0.1-1.1-0.1-1.6c1.6-0.3,3.2-0.9,4.8-0.9c12.7-0.1,25.3-0.1,38,0.1c3.5,0.1,5.7-1.1,7.3-4.1c1.9-3.6,4.1-7.1,6.2-10.7
		c-0.3-0.4-0.6-0.8-0.9-1.3c-2.6,1.3-5.3,2.7-7.9,4c-1.7,0.8-3.3,1.9-5,2.4c-1.1,0.3-2.9,0.2-3.4-0.5c-0.5-0.8-0.2-2.5,0.3-3.5
		c0.8-1.7,2.1-3.2,3.2-4.8c-0.3-0.4-0.6-0.8-0.8-1.3c-3.9,1.7-7.9,3.5-12.3,5.4c-0.4-6.4,5.9-7.6,8.2-12.8c-2.8,0.4-4.8,0.8-6.8,0.8
		c-1.7,0-3.3-0.5-5-0.8c0.9-1.5,1.6-3.3,2.8-4.3c1.5-1.2,3.5-1.8,5.3-2.7c1.3-0.6,2.7-1.2,4.1-1.8c0-0.5,0.1-0.9,0.1-1.4
		c-1.6-0.6-3.1-1.4-4.7-1.7c-4.7-0.8-9.5-1.1-14.1-2.1c-1.6-0.4-2.8-2.3-4.2-3.5c1.5-1,3.1-2.8,4.6-2.7c4.2,0.2,8.5,1.2,12.7,1.9
		c1.8,0.3,3.7,0.8,5.5,1.2c0.3-0.5,0.5-0.9,0.8-1.4c-2-2-4.2-3.9-5.9-6.2c-1.4-1.9-2.2-4.2-3.3-6.4c2.3,0.6,4.7,1.1,7,1.8
		c1.3,0.4,2.4,1.3,4,2.2c0.1-2.1,0.2-3.5,0.3-5.8c2.4,1.8,4.2,3.4,6.2,4.6c1,0.6,2.3,0.7,3.5,1c0.1-1.3,0.5-2.6,0.4-3.9
		c-0.1-1.4-0.7-2.8-1.1-4.2c0.9-0.2,1.2-0.4,1.4-0.4c6,3,6.1,3.1,10.8-1.7c7.2-7.3,16.1-11.4,25.6-14.5c1.2-0.4,2.7-1.2,3.1-2.3
		c0.3-0.8-0.6-2.7-1.5-3.1c-1-0.5-2.6-0.1-3.8,0.3c-7.9,2.7-15.5,6.2-23.6,8.2c-9,2.3-18.3,3.5-27.5,4.8c-2,0.3-4.3-1.3-6.5-2
		c1.5-1.6,2.7-3.5,4.5-4.7c7.7-4.9,16.1-7.4,25.2-7.8c8.5-0.4,16.9-1,25.4-1.8c1.3-0.1,2.5-2,3.7-3.1c-1.3-0.9-2.6-2.6-3.8-2.5
		c-7,0.4-14,1-21,1.8c-8.7,1-17.4,2.7-26.1,3.5c-5.1,0.4-10.3-0.4-15.4-0.9c-1.2-0.1-2.4-1.3-3.6-1.9c0.9-1,1.5-2.6,2.6-3
		c6.1-2.1,12.2-5.4,18.4-5.5c12.7-0.3,25.5,1,38.3,1.6c1.1,0.1,2.8,0.1,3.1-0.5c0.5-1,0.4-2.5-0.1-3.5c-2.3-4.7-4.2-4.8-9.4-4.1
		c-8.8,1.2-17.7,1.9-26.5,1.9c-5.8,0-11.7-1.4-17.5-2.3c-1.1-0.2-2.1-1.2-3.1-1.9c0.8-1.1,1.4-2.5,2.5-3.1c2-1,4.3-2,6.5-2.1
		c10.2-0.5,20.4-0.9,30.4,1.9c2.4,0.7,5.5,2.9,7.7-0.7c-2.4-1.2-4.6-3.2-7.1-3.6c-5.4-0.9-10.9-0.8-16.3-1.7
		c-5.4-0.8-10.7-2.1-15.9-3.5c-1.3-0.4-2.2-2.3-3.3-3.5c1.3-0.9,2.5-2.2,4-2.5c8.4-1.9,15.8,2,23.4,4.3c1.3,0.4,2.7,0.5,4.1,0.8
		c0.2-0.5,0.5-1,0.7-1.5c-2.2-1.6-4.1-3.7-6.5-4.8c-10.5-5-19.2-12.1-25.2-22.2c-0.6-1.1-0.6-2.6-0.9-3.8c1.5-0.1,3.2-0.7,4.4-0.1
		c12.6,5.5,23.1,13.3,29,26.2c1.6,3.4,4.6,6.2,7,9.2c0.5-0.3,1.1-0.6,1.6-0.8c-0.2-1.1-0.5-2.1-0.7-3.2c-1.9-8.5-4-17-5.8-25.6
		c-0.3-1.3,0.7-2.8,1.1-4.2c1.2,1,2.8,1.8,3.5,3.1c6.5,11.5,11.5,23.5,9.9,37.3c-0.1,0.8-0.2,1.9,0.2,2.5c0.7,1.1,1.9,1.9,2.8,2.8
		c0.6-1.1,1.6-2.2,1.6-3.3c-0.1-8.8-0.6-17.5-0.5-26.3c0-4.4,0.7-8.9,1.3-13.3c0.1-1,1.1-1.8,1.7-2.7c0.8,0.8,2.2,1.5,2.4,2.5
		c3.7,14.5,6.3,28.9,1.4,43.8c-1,3-0.8,6.4-0.7,9.6c0,0.9,1.8,1.8,2.8,2.7c0.8-1,2.3-1.9,2.4-3c0.8-5,0.8-10.1,1.9-15
		c1.9-8.8,4.2-17.5,6.6-26.2c0.4-1.4,2.4-2.4,3.7-3.5c0.9,1.5,2.2,2.9,2.5,4.5c2.3,10.5-0.9,20.1-4.8,29.6c-0.6,1.5-0.8,3.3-1.2,4.9
		c0.4,0.1,0.8,0.3,1.2,0.4c2.1-3.4,3.9-7,6.3-10.1c5.3-6.8,10.9-13.3,16.5-19.9c0.9-1,2.5-1.4,4.3-1.7c-1.3,9.7-6,17.7-11.1,25.6
		c-5,7.8-13.7,12.9-17.4,21.6c0.4,0.4,0.9,0.9,1.3,1.3c2-1.8,4-3.6,6.1-5.3c4.2-3.5,8.1-7.4,12.7-10.2c3.6-2.1,8-3,12.1-4
		c1.1-0.3,3.2,0.5,3.6,1.4c0.5,0.9-0.1,3.1-1,3.7c-4.5,3.5-9.1,7-14,9.9c-5.8,3.4-11.9,6.4-18,9.2c-3.8,1.7-4.5,4.4-3.1,7.7
		c2.1,4.8,4.6,9.5,10.8,10c0.6,0,1.3-0.3,2.5-0.5c-1-1.8-2-3.2-2.5-4.7c-0.3-1.1,0-2.4,0.1-3.6c1.1,0.1,2.3-0.1,3.3,0.3
		c1.5,0.6,2.9,1.6,5.2,1.9c-0.8-2.6-1.8-5.2-2.3-7.8c-0.3-1.3,0.4-2.9,0.6-4.3c1.4,0.5,3,0.7,4.1,1.5c1.5,1.1,2.7,2.8,4.7,4.9
		c0.5-2.4,0.8-3.8,1-5.3c0.6-4.4,0.9-4.6,5.3-2.7c1-1.7,2.1-3.4,3.1-5.1c0.4,0,0.7,0.1,1.1,0.1c0.6,2.9,1.1,5.7,1.7,8.6
		c0.6,0.4,1.3,0.8,1.9,1.2c0.6-1.3,1.1-2.6,1.9-3.8c1-1.5,2.2-3.1,3.5-4.4c1.8-1.9,3.6-4.8,6.6-2.8c0.5,0.3-1.3,4.7-2.6,6.8
		c-1.6,2.4-3.9,4.2-5.9,6.3c-0.8,0.8-1.3,1.9-1.9,2.9c0.3,0.4,0.5,0.7,0.8,1.1c1.6-0.6,3.2-1.1,4.8-1.8c1.3-0.5,2.6-1.5,3.9-1.7
		c1.1-0.2,2.3,0.5,3.4,0.8c-0.5,0.9-0.9,2-1.5,2.8s-1.5,1.3-2.4,2.1c1,1.2,1.8,2.3,3.2,4c-3.9,2.1-7.5,4.1-12.1,6.7
		c2.5,0.9,4.4,1.4,6,2.2c1.4,0.7,2.7,1.8,4,2.7c-1.4,0.7-2.7,1.5-4.2,2c-1.8,0.6-3.6,0.9-5.4,1.3c0,0.4,0,0.9-0.1,1.3
		c1.3,0.7,2.7,1.3,3.8,2.3c1,0.8,1.6,2.1,2.4,3.2c-1.2,0.6-2.5,1.8-3.6,1.6c-4.9-1-9.9-2-14.5-3.8c-5.4-2.1-9-0.6-10,5.2
		c-0.4,2-1.3,3.9-1.4,5.8c-0.2,2.9-0.5,6,0.2,8.7c1.5,6.2,3.5,12.3,5.5,18.3c0.9,2.6,2.3,5,3.4,7.5c0.4,0,0.9-0.1,1.3-0.1
		c0.5-1.1,0.9-2.2,1.5-3.2c0.6-1.1,1.1-3,1.9-3.1c6.7-1.1,8.4-7.1,11.2-11.7c10-16.4,19.6-33.1,29.6-49.6c1.7-2.9,2-5.2-0.2-7.8
		c-1.5-1.9-2.9-4-3.8-6.2c-0.5-1.1,0.3-2.8,0.6-4.2c1.3,0.4,2.6,0.6,3.8,1.2c0.7,0.4,1,1.3,1.5,2.1c2.7,4.6,4.3,4.5,7.1-0.1
		c0.6-1,1.2-2.1,2.1-2.6c0.8-0.5,2.6-0.6,3.1-0.1c0.7,0.8,1.1,2.5,0.7,3.4c-1.2,2.4-2.7,4.7-4.3,7c-1.7,2.4-1.7,4.7-0.2,7.2
		c11.2,18.7,22.4,37.5,33.7,56.2c0.9,1.5,2.2,3.4,3.8,4c3.4,1.3,5.7,3,6.4,6.7c0.1,0.6,1.8,1.7,2.2,1.5c1.3-0.7,2.9-1.7,3.4-2.9
		c1.7-4.2,3.1-8.6,4.2-13c1.5-6.1,2.6-12.3,3.9-18.4c0.1-0.6,0.2-1.4,0.6-1.6c5-3,5.7-8.7,8.3-13.1c0.7-1.2,1.1-2.6,1.3-4
		c0.1-0.8-0.5-1.9-1.2-2.5c-0.4-0.3-1.6,0.3-2.2,0.7c-2.1,1.5-4.5,2.8-6,4.8c-1.1,1.5-1.2,3.8-1.5,5.8c-0.2,1.6,0.1,3.3,0.2,5
		c-0.5,0.1-1,0.2-1.6,0.3c-0.5-1.3-1-2.6-1.4-4c-1-3.7-4.1-4.2-7.6-2.8c-5.3,2.2-11.1,3.4-16.8,4.8c-0.8,0.2-1.8-0.9-2.8-1.4
		c0.5-1,0.8-2.3,1.6-2.8c2.1-1.3,4.5-2.3,6.8-3.3c0-0.4,0-0.9,0-1.3c-4.2-0.6-8.5-1.2-12.7-1.8c-0.1-0.5-0.2-0.9-0.2-1.4
		c1.4-0.7,2.7-1.5,4.1-2.3c1.6-0.9,3.2-1.9,4.8-2.9c-1.5-1-2.9-1.9-4.4-3c-1-0.7-1.9-1.6-2.8-2.4c0.9-1,1.7-1.9,2.8-3.1
		c-1.5-1.3-3.4-2.7-5-4.4c-0.8-0.8-1.1-2-1.6-3c1.2-0.2,2.5-0.9,3.5-0.5c2.6,0.9,5,2.2,7.5,3.2c0.6,0.2,1.3,0,3.1,0
		c-1.6-2-2.6-3.5-3.7-4.8c-2.3-2.7-5-5.2-7-8.2c-0.7-0.9,0-2.8,0.1-4.2c1.3,0.3,2.9,0.2,3.8,1c2,1.8,3.7,4,5.6,6
		c1.2,1.3,2.6,2.5,4.4,4.2c1-3.3,1.8-5.8,2.9-9.6c1.9,2.9,3.1,4.7,4.5,6.8c1.3-0.9,2.4-1.7,3.8-2.7c0.2,1,0.4,1.9,0.6,2.8
		c0.4,1.3,0.9,2.6,1.3,3.8c1.2-0.6,2.4-1.4,3.6-1.9c1.6-0.7,3.2-1.1,4.8-1.7c-0.1,1.6,0.1,3.3-0.2,4.9c-0.5,2.1-1.3,4.1-2,6.2
		c0.3,0.3,0.7,0.6,1,0.9c1.5-0.6,2.9-1.4,4.4-1.9c1.1-0.3,2.4-0.2,3.5-0.3c-0.2,1-0.4,2.1-0.5,3.1c-0.2,1.7-1.1,4.5-0.4,5
		c1.9,1.4,4.2,1.1,5.8-1.4c0.9-1.5,2.9-2.6,3.5-4.2c4-10.3,4-8.3-6.4-14c-6.7-3.7-13.5-7-20.1-10.7c-2.5-1.4-4.6-3.4-6.7-5.4
		c-0.9-0.9-1.7-2.8-1.3-3.6c0.4-0.9,2.3-1.5,3.6-1.6c8.3-0.3,14.3,4.4,20.2,9.4c3.7,3.2,7.3,6.5,10.9,9.8c0.7,0.6,1.6,1,2.4,1.4
		c0.3-0.2,0.6-0.5,0.8-0.7c-0.6-0.9-1.1-1.8-1.8-2.6c-5.4-6.5-11.5-12.5-16.2-19.5c-4.8-7.2-8.4-15.3-12.3-23.1
		c-0.5-1.1,0.1-2.7,0.1-4c1.3,0.5,2.9,0.8,3.9,1.7c8.1,7.6,15.2,16.1,20.4,26c0.3,0.6,1,0.9,2.6,1.1c-0.3-1.9-0.3-4-1-5.7
		c-3.9-8.8-5.4-17.9-3.3-27.3c0.3-1.4,1.4-2.6,2.1-3.9c1.1,0.9,2.6,1.7,3.2,2.9c5.2,9.3,6.2,19.7,7.6,29.9c0.5,3.8,0.7,7.7,1.3,11.6
		c0.3,1.9,1.3,3.7,2.6,5.4c2.9-3.9,4.7-7.3,2.9-12.3c-5.9-15.9-3.5-31.7,1.7-47.3c0.2-0.5,0.5-1,0.9-1.4c0.3-0.3,0.7-0.4,1.8-0.9
		c0.4,1.8,0.9,3.3,0.9,4.9c0.1,12.6,0.1,25.3,0.1,37.9c0,1-0.2,2.1,0.1,3c0.4,0.9,1.4,1.5,2.1,2.3c0.7-0.7,1.7-1.2,1.9-2
		c0.4-1.5,0.7-3.2,0.3-4.7c-2.2-8.1,1-15.4,3.6-22.6c2.1-5.7,5.6-10.9,8.5-16.3c0.4-0.8,1.4-1.3,2.7-1.8c0.4,11.4-2.8,22.2-6.2,32.9
		c0.5,0.3,1,0.6,1.5,0.9c1.9-1.9,4.7-3.4,5.6-5.7c5.9-13.8,16.1-22.9,29.8-28.3c1.4-0.5,3.1-0.3,4.6-0.4c-0.3,1.6-0.3,3.4-1.1,4.7
		c-6,9.1-13.7,16.2-23.7,20.8c-2.8,1.3-5.3,3.2-8,4.8c0.1,0.5,0.2,1,0.2,1.5c1.7,0,3.5,0.4,5.1-0.1c3.9-1,7.6-2.7,11.5-3.6
		c3.2-0.7,6.6-1.1,9.8-0.8c2.2,0.2,4.2,1.8,6.3,2.7c-1.7,1.2-3.2,3.2-5.1,3.6c-9.4,1.8-18.9,3.3-28.4,4.8c-2,0.3-4.1,0-6,0.5
		c-1.1,0.3-2,1.6-2.9,2.5c1.1,0.7,2.2,1.9,3.3,1.8c3.6-0.4,7.1-1,10.6-1.9c9.9-2.5,19.7-1.9,29.3,1c1.2,0.4,2,1.7,3,2.6
		c-1.1,1-2.1,2.7-3.3,2.8c-9.7,0.9-19.5,1.8-29.2,2c-5.2,0.1-10.5-1.2-15.7-2.1c-3.9-0.7-9.4,3-9,6.7c0.1,0.7,2.3,1.9,3.5,1.8
		c5.9-0.5,11.7-1.4,17.6-2.1c13.5-1.6,26.7-0.4,39.1,5.8c1.1,0.6,1.9,1.8,2.9,2.7c-1,0.9-2.1,2.5-3.1,2.5
		c-6.8,0.4-13.8,1.2-20.5,0.6c-13-1.3-25.9-3.5-38.9-5.1c-2-0.2-4.2,0.5-6,1.3c-0.8,0.4-1.4,2.1-1.3,3.2c0,0.5,1.7,1.2,2.7,1.3
		c9.2,0.7,18.4,1.2,27.6,1.8c9.2,0.6,17.8,3.3,25.4,8.7c1.3,0.9,2,2.7,3,4.2c-1.6,0.7-3.3,2.2-4.9,2c-8-1.1-16-2-23.8-4
		c-9.9-2.5-19.5-6-29.2-9.1c-0.5-0.2-1.2-0.6-1.6-0.5c-1.3,0.4-2.6,1.1-3.9,1.6c0.8,1,1.4,2.5,2.4,3c3.8,1.7,8.1,2.5,11.6,4.5
		c5.3,3,10.5,6.5,15.2,10.4C422.6,123.2,422.4,123.5,429.3,121.1z M232.2,162c0.3,0,0.5,0,0.8,0c-0.6-5-0.3-10.2-1.9-14.8
		c-3.5-10-8-19.7-12.2-29.5c-0.6-1.4-1.7-2.6-2.6-3.9c-1.3,1.4-2.8,2.7-3.7,4.3c-2.2,3.8-4.3,7.7-6.2,11.8c-1,2.2-1.7,4.7-2,7.2
		c-0.5,4.5-0.1,9.2-1,13.7c-0.8,4,0.7,6.3,3.8,8.2c1.3,0.8,2.8,1.4,4.1,2.3c5.4,4.2,10.8,8.5,16.2,12.7c0.9,0.7,2.3,1.2,3.4,1.1
		c0.6-0.1,1.1-1.9,1.2-2.9C232.3,168.6,232.2,165.3,232.2,162z M364.6,154.1c0.5,6.1,0.9,11.6,1.5,17c0.2,1.4,0.9,2.8,1.3,4.2
		c1.4-0.7,3-1.2,4.3-2.1c6.1-4.5,11.8-9.7,18.3-13.5c4-2.3,4.7-4.6,4-8.6c-0.6-3.8-1.2-7.7-0.7-11.5c0.4-3.6-0.5-6.3-2.3-9.3
		c-2.5-4.3-4.7-8.8-6.7-13.4c-1.2-2.7-2.4-3.1-4.3-1.1c-1,1.1-1.8,2.5-2.4,3.9c-1.7,3.9-3.1,7.9-4.7,11.8c-1.8,4.3-3.8,8.5-5.4,12.9
		C366.2,147.8,365.4,151.3,364.6,154.1z M208.1,182.7v0.1c5.2,0,10.3,0.1,15.5,0c1.3,0,2.6-0.6,3.8-1c-0.4-1.3-0.7-2.7-1.2-4
		c-0.3-0.8-1-1.4-1.7-2c-6.5-5.1-13-10.3-19.6-15.3c-2.4-1.8-4.4-0.4-5.8,1.7c-3.5,5.2-6.9,10.5-10.2,15.8c-2,3.1-1.3,4.5,2.4,4.5
		C196.9,182.7,202.5,182.7,208.1,182.7z M389.6,182.7L389.6,182.7c4.6,0,9.2,0.1,13.8-0.1c1.7-0.1,3.4-0.9,5-1.4
		c-0.6-1.5-1.1-3.2-1.9-4.6c-2.5-4.2-5.4-8.1-7.6-12.5c-1.5-3-3.4-4.2-6-2.3c-7,5-13.8,10.2-20.5,15.5c-0.9,0.7-1.5,2.8-1,3.8
		c0.4,0.9,2.3,1.4,3.6,1.5C379.8,182.8,384.7,182.7,389.6,182.7z M297.7,174.7c3.7,0,7.5,0.1,11.2,0c3.6-0.1,4.8-1.9,3.1-5.1
		c-3.6-6.5-7.5-12.9-11.4-19.2c-1.2-1.9-3.5-2.9-4.9-0.6c-4.3,6.8-8.3,13.7-12.2,20.7c-1.4,2.6-0.3,4.1,2.7,4.2
		C289.9,174.7,293.8,174.7,297.7,174.7z M193,140.1c1.4-5.2,1.7-9.6,3.6-13c3.1-5.4,7.3-10.2,11-15.3c1.1-1.6,2.1-3.3,3.1-5
		c-0.3-0.2-0.6-0.4-1-0.6c-1.4,0.9-3,1.6-4.2,2.8c-5.7,5.5-11.3,10.9-18.8,14.1c-2.8,1.2-3.9,3.5-0.3,5.7c1.3,0.8,2.2,2.3,2.9,3.6
		C190.6,134.5,191.5,136.9,193,140.1z M403.5,137.1c0.5,0,1,0,1.5,0c2.2-2.7,4.3-5.6,6.6-8.2c1.8-2.1,1.4-3.3-0.7-4.9
		c-6.5-4.8-12.9-9.8-19.4-14.7c-1.1-0.8-2.5-1.1-3.7-1.7c-0.3,0.3-0.6,0.7-0.8,1C393.2,117.8,402.7,124.9,403.5,137.1z M197.6,157.3
		c-0.5-0.4-1-0.9-1.6-1.3c-8.3,8.1-15.4,17.5-23.9,25.8c1.9,0.9,3.9,1.7,4.7,1c2.5-1.9,4.8-4.3,6.8-6.8c4-5,7.8-10.1,11.7-15.2
		C196.2,159.7,196.9,158.5,197.6,157.3z M234,145.1c1.7-2.9,3.1-4.9,4.3-7.1c1.4-2.6,1.1-4.9-1.6-6.6c-2.5-1.6-4.8-3.6-7.3-5.3
		c-0.8-0.5-1.9-0.5-2.9-0.7c0,1.1-0.2,2.2,0.1,3.1c0.8,2.2,1.9,4.4,2.9,6.5C230.8,138.1,232.2,141.1,234,145.1z M424.1,182.3
		c-0.7-1.3-1-2.3-1.6-3c-5.9-6.6-11.7-13.2-17.7-19.7c-0.5-0.6-2-0.3-3-0.5c0.2,1,0.1,2.3,0.6,3c4.4,5.9,9,11.7,13.3,17.7
		C417.7,182.6,420.1,183.5,424.1,182.3z M363,165.2c-4.2,3.9-6.9,8.3-6.3,13.9c0.1,1,1.1,2.3,2,2.8c0.5,0.3,2.2-0.8,2.6-1.6
		C363.7,175.6,363.6,170.4,363,165.2z M238.3,166.6c-0.4-0.1-0.8-0.2-1.2-0.3c-0.6,1.3-1.8,2.5-1.8,3.8c-0.1,3.1,0.1,6.3,0.8,9.3
		c0.3,1.2,2.2,2.1,3.3,3.2c0.8-1.4,2.6-3.1,2.3-4.3C241,174.3,239.5,170.4,238.3,166.6z M404.6,140.7c-0.6-0.1-1.1-0.3-1.7-0.4
		c-5.1,3.4-6.4,10.4-1.7,14.9C402.5,149.8,403.6,145.3,404.6,140.7z M199.3,149.2c-0.3-2.4-0.1-4-0.8-5.2s-2.2-1.9-3.4-2.8
		c-0.5,1.2-1.2,2.3-1.3,3.5c-0.1,1.4,0.1,3,0.8,4.2s2.1,1.9,3.1,2.8C198.4,150.8,199,149.7,199.3,149.2z M181.5,159.4
		c6-0.2,8.3-2.6,7.5-8.1C186.1,154.5,183.8,157,181.5,159.4z M172.3,153.8c5,1.4,8.4-1.5,7.8-5.7
		C177.4,150.1,174.9,151.9,172.3,153.8z M414.5,161.7c0.4-0.4,0.8-0.8,1.2-1.2c-1.5-1.9-2.8-3.9-4.4-5.6c-0.4-0.5-1.7-0.1-2.6-0.1
		c0.1,1-0.3,2.5,0.3,3C410.5,159.3,412.6,160.4,414.5,161.7z M182,135c0.4-0.2,0.7-0.3,1.1-0.5c-0.4-2.5,0.3-5.5-2.4-7
		c-0.6,0.2-1.1,0.5-1.7,0.7C180,130.5,181,132.7,182,135z M425.2,154.4c-2-1.3-3-2.3-4.2-2.5c-0.7-0.1-1.6,0.9-2.4,1.5
		c1,0.8,2,1.8,3.2,2.2C422.3,155.7,423.3,155,425.2,154.4z M382.2,95.8c0.7-0.1,1.4-0.3,2-0.4c-0.4-1.9-0.8-3.8-1.2-5.7
		c-0.6,0.1-1.3,0.3-1.9,0.4C381.5,92,381.8,93.9,382.2,95.8z"/>
	<path class="st0" d="M299.6,188.1c3.2,6.2,6,11.3,8.4,16.7c1.6,3.6,4.1,5.4,7.8,5.8c4.3,0.5,8.6,0.8,12.9,1.5
		c1.5,0.3,3.4,1.2,4,2.4c0.4,0.7-1,2.8-2,3.8c-3.2,3.3-6.9,6.2-9.8,9.7c-1.5,1.9-2.7,4.8-2.6,7.2c0.4,5.3,1.7,10.5,2.5,15.7
		c0.2,1.2,0.2,2.9-0.4,3.5s-2.5,0.3-3.5-0.2c-4.7-2.4-9.3-5.3-14.1-7.3c-2.2-0.9-5.4-1.1-7.6-0.2c-4.8,1.9-9.1,4.8-13.7,7.2
		c-1,0.5-2.7,1-3.5,0.6c-0.7-0.4-1.1-2.2-1-3.3c0.7-4.8,1.5-9.7,2.6-14.4c0.7-3.3,0.2-5.9-2.3-8.2c-3.4-3.1-6.7-6.3-9.9-9.6
		c-1.2-1.3-1.8-3-2.7-4.6c1.6-0.8,3.1-2,4.7-2.3c3.4-0.7,6.8-1.2,10.3-1.1c6,0.1,9.1-3.3,11.2-8.3c1.3-3.2,2.8-6.3,4.4-9.3
		C296.2,191.6,297.7,190.3,299.6,188.1z"/>
	<path class="st0" d="M112.3,254.1c1-5.5,1.8-10.6,2.8-15.7c0.8-3.8-0.3-6.7-3.2-9.2c-3.4-2.9-6.6-6-9.6-9.2
		c-1.1-1.1-1.7-2.8-2.5-4.1c1.4-0.5,2.8-1.3,4.3-1.5c5.1-1,10.3-1.4,15.2-2.8c2.3-0.6,4.7-2.7,5.9-4.8c2.6-4.3,4.4-9,6.7-13.5
		c1.5-3.1,3.1-3.3,4.9-0.4c2.2,3.8,4.2,7.8,5.9,11.9c1.7,4.2,4.2,6.9,9.1,7.3c4.9,0.4,9.7,1.4,14.5,2.2c1,0.2,2.8,0.8,2.8,1.4
		c0.1,1.1-0.6,2.4-1.4,3.2c-3.6,3.7-7.3,7.4-11.2,10.8c-3,2.6-3.7,5.5-2.7,9.2c1.1,4.3,2,8.7,2.6,13.1c0.2,1.4-0.3,3.3-1.2,4.1
		c-0.6,0.6-2.7,0-3.9-0.6c-3.3-1.7-6.7-3.4-9.8-5.4c-4.9-3.3-9.5-3-14.3,0.2c-3.5,2.3-7.2,4.1-11,5.9
		C113.6,257.4,112.3,256.3,112.3,254.1z"/>
	<path class="st0" d="M197,252.2c0.8-4.6,1.3-9.7,2.6-14.5c1-3.6,0.2-6.2-2.3-8.5c-3.7-3.6-7.5-7.1-11.2-10.8
		c-0.7-0.7-1.7-2.2-1.4-2.8c0.4-1,1.7-1.9,2.8-2.1c4.8-0.9,9.6-2.2,14.5-2.2c6.2,0,7.3-4.7,9.4-8.6c1.6-3,2.8-6.3,4.5-9.3
		c0.7-1.2,2.2-2.4,3.5-2.6c0.8-0.1,2.1,1.6,2.8,2.7c2.3,4.2,4.6,8.3,6.4,12.7c1.4,3.5,3.8,4.6,7.3,4.9c4.7,0.4,9.4,1.3,14.1,2.2
		c1.2,0.2,2.7,1.2,3.2,2.3c0.3,0.6-0.8,2.3-1.6,3.1c-3.4,3.5-7,6.8-10.6,10.2c-2.3,2.3-3.3,4.8-2.5,8.2c1.1,4.9,1.8,9.9,2.6,14.9
		c0.1,1-0.2,2.9-0.7,3c-1.2,0.4-2.9,0.4-4-0.2c-4.7-2.4-9.3-5.2-14.1-7.4c-1.7-0.8-4.3-0.9-6-0.2c-4.8,2.2-9.4,4.9-14,7.5
		C199,256.4,197,255.6,197,252.2z"/>
	<path class="st0" d="M402.6,250.3c0,3.2-1.5,4.1-4.2,2.7c-3.9-1.9-7.8-3.8-11.4-6c-4.4-2.7-8.4-2.8-12.9-0.1
		c-3.8,2.3-7.8,4.3-11.8,6.2c-3.2,1.5-4.2,0-3.7-3.1c0.8-5.1,2.1-10.2,2.3-15.3c0.1-2.5-1-5.6-2.5-7.6c-2.6-3.4-6.2-6-9.1-9.2
		c-1.3-1.4-2.1-3.2-3.1-4.8c1.7-0.7,3.4-1.6,5.3-2c2.8-0.6,5.7-0.9,8.6-1c6.9-0.2,11.1-3.7,13.5-10c1-2.7,2.3-5.3,3.7-7.7
		c0.7-1.2,2.2-2.7,3.2-2.6c1.3,0.2,2.9,1.5,3.7,2.8c2.1,3.7,4,7.6,5.8,11.5c1.5,3.1,3.8,4.9,7.3,5.2c4.4,0.5,8.8,1.1,13.2,1.8
		c1.6,0.3,3,1.2,4.5,1.8c-0.8,1.4-1.3,3.1-2.4,4.2c-3.5,3.6-7.1,7.1-10.8,10.6c-2.2,2.1-2.7,4.5-2,7.4
		C400.8,240.1,401.6,245.3,402.6,250.3z"/>
</g>
<g>
	<path class="st0" d="M83.3,291.8v18.1h7v1.6H68.8v-1.6h6.8v-39.8h-6.8v-1.6H91c5,0,8.8,1.1,11.3,3.3c2.5,2.2,3.8,5,3.8,8.2
		c0,3.3-1.3,6.1-3.8,8.4c-2.6,2.3-6.8,3.4-12.8,3.4H83.3z M83.3,270.1v20.1h4.1c2.2,0,4-0.2,5.4-0.5c1.4-0.4,2.7-1.3,3.7-2.9
		s1.6-4,1.6-7.3c0-2.9-0.5-5-1.4-6.4s-2-2.2-3.2-2.5s-2.8-0.5-4.6-0.5L83.3,270.1L83.3,270.1z"/>
	<path class="st0" d="M131.8,297.1v-3.3c0-2.7-0.2-4.4-0.7-5.3c-0.4-0.8-1.6-1.3-3.6-1.3c-3.5,0-5.2,0.7-5.2,2
		c0,0.4,0.1,0.8,0.4,1.3s0.4,1,0.4,1.6c0,0.9-0.3,1.5-0.9,2s-1.2,0.7-2,0.7c-0.9,0-1.7-0.3-2.2-0.9s-0.8-1.3-0.8-2.1
		c0-1.7,1-3.2,3-4.3c2-1.2,4.8-1.8,8.4-1.8c2.9,0,5,0.3,6.3,1s2.1,1.5,2.5,2.5c0.3,1,0.5,2.4,0.5,4.2v11.8c0,1.7,0.1,2.8,0.4,3.2
		c0.2,0.4,0.6,0.6,1.1,0.6c0.8,0,1.5-0.5,2.3-1.6h0.8c-0.6,3.1-2.4,4.7-5.5,4.7c-3,0-4.8-1.7-5.3-5.1c-2.5,3.4-5.4,5.1-8.8,5.1
		c-2.2,0-4-0.6-5.3-1.8c-1.3-1.2-2-2.7-2-4.5C115.7,300.6,121.1,297.6,131.8,297.1z M131.8,302.1v-3.5c-4,0.1-6.6,0.7-7.8,1.8
		c-1.3,1-1.9,2.5-1.9,4.5c0,1.4,0.4,2.6,1.1,3.3c0.8,0.8,1.6,1.2,2.6,1.2c1.3,0,2.4-0.4,3.4-1.3c1-0.8,1.7-1.7,2-2.6
		C131.7,304.8,131.8,303.6,131.8,302.1z"/>
	<path class="st0" d="M157.7,309.9v-22h-5.2v-1.6h5.3c2.7,0,4.8-0.1,6.2-0.4v6.1h0.1c1.5-4.1,3.7-6.1,6.7-6.1c1.3,0,2.3,0.4,3.1,1.2
		c0.8,0.8,1.2,1.7,1.2,2.8c0,1-0.3,1.9-0.9,2.5c-0.6,0.6-1.5,0.9-2.5,0.9c-1.8,0-2.8-0.9-2.8-2.8l0.1-1.4c0-0.5-0.2-0.7-0.7-0.7
		c-0.7,0-1.6,1-2.7,2.9c-1.1,1.9-1.6,4.8-1.6,8.7v9.9h5.3v1.6h-16.8v-1.6H157.7z"/>
	<path class="st0" d="M195,285.8v24.1h4.2v1.6h-14.9v-1.6h4.5v-22h-4.5v-1.6h4.6C191,286.3,193.1,286.1,195,285.8z M188.5,273.4
		c0-0.9,0.3-1.8,1-2.4c0.7-0.7,1.5-1,2.5-1c0.9,0,1.8,0.3,2.5,1s1,1.5,1,2.5s-0.3,1.8-1,2.5s-1.5,1-2.5,1s-1.8-0.3-2.5-1
		C188.9,275.2,188.5,274.4,188.5,273.4z"/>
	<path class="st0" d="M213.8,309.9v-22h-4.5v-1.6h2.8c3.3,0,6-0.1,8-0.4v6.2h0.1c1.7-4.1,4.7-6.2,9.1-6.2c4.7,0,7.4,2.2,7.8,6.6h0.1
		c1.9-4.4,5-6.6,9.3-6.6c1.9,0,3.6,0.5,4.9,1.4c1.3,1,2.1,2.1,2.4,3.3c0.3,1.3,0.5,3.4,0.5,6.3v13h4.5v1.6h-14.9v-1.6h4.2V294
		c0-2.5-0.1-4.2-0.4-5.2c-0.3-0.9-1.1-1.4-2.3-1.4c-1.7,0-3.5,1-5.4,2.9c-1.8,2-2.7,5.7-2.7,11.2v8.4h4.1v1.6h-14.6v-1.6h4.2v-12.4
		c0-4.8-0.2-7.7-0.5-8.6c-0.4-0.9-1.2-1.4-2.5-1.4c-1.8,0-3.4,0.8-4.8,2.4c-1.4,1.6-2.2,3.2-2.5,4.7s-0.5,3.9-0.5,7.3v8.1h4.1v1.6
		h-14.9V310h4.4V309.9z"/>
	<path class="st0" d="M279.5,285.8v24.1h4.2v1.6h-14.9v-1.6h4.5v-22h-4.5v-1.6h4.6C275.5,286.3,277.6,286.1,279.5,285.8z
		 M273.1,273.4c0-0.9,0.3-1.8,1-2.4c0.7-0.7,1.5-1,2.5-1c0.9,0,1.8,0.3,2.5,1s1,1.5,1,2.5s-0.3,1.8-1,2.5s-1.5,1-2.5,1
		s-1.8-0.3-2.5-1S273.1,274.4,273.1,273.4z"/>
	<path class="st0" d="M311.5,286v7.2h-1.3c-1-4.2-3.4-6.3-7.2-6.3c-1.7,0-3,0.4-4.1,1.3s-1.7,1.9-1.7,3c0,0.9,0.4,1.7,1.2,2.2
		c0.8,0.5,2.6,1,5.5,1.4c6.4,0.8,9.6,3.7,9.6,8.7c0,2.5-0.8,4.6-2.5,6.3c-1.7,1.7-3.7,2.5-6.2,2.5c-2.4,0-4.8-1-7-3l-2.2,1.9h-1.1
		v-9.5h1.1c1.8,6.1,4.9,9.1,9.3,9.1c1.6,0,3.1-0.5,4.5-1.6c1.4-1,2-2.3,2-3.7c0-1.2-0.4-2.1-1.2-2.7c-0.8-0.6-3-1.2-6.5-1.7
		c-6-0.9-9-3.6-9-8c0-2.2,0.8-4.1,2.4-5.5c1.6-1.5,3.6-2.2,5.9-2.2c2.5,0,4.5,0.8,6.2,2.4c0.4-0.5,0.9-1.1,1.3-1.9h1V286z"/>
	<path class="st0" d="M355.3,309.9v-39.8h-6.8v-1.6h21.3v1.6H363v18.4h18.6v-18.4h-6.7v-1.6h21.2v1.6h-6.8v39.8h6.8v1.6h-21.2v-1.6
		h6.7v-19.8H363v19.8h6.8v1.6h-21.3v-1.6H355.3z"/>
	<path class="st0" d="M408.4,298.9c0-3.7,1.3-6.9,3.8-9.5s5.7-3.9,9.5-3.9c3.7,0,6.8,1.2,9.4,3.7s3.8,5.6,3.8,9.4s-1.3,7.1-4,9.8
		c-2.7,2.7-5.8,4-9.4,4s-6.6-1.3-9.2-3.9S408.4,302.7,408.4,298.9z M413,280.9l7.5-10.9h2.4l7.5,10.9h-1.8l-6.9-6.1l-7,6.1H413z
		 M427.7,298.9c0-3.9-0.1-6.5-0.4-7.8s-0.9-2.3-1.8-3s-2.2-1.1-3.8-1.1c-1.5,0-2.8,0.4-3.8,1.1s-1.6,1.8-1.8,3
		c-0.2,1.3-0.4,3.9-0.4,7.8c0,4,0.1,6.6,0.4,7.9s0.9,2.3,1.9,3s2.2,1.1,3.7,1.1s2.7-0.4,3.7-1.1s1.6-1.8,1.9-3.1
		C427.6,305.4,427.7,302.8,427.7,298.9z"/>
	<path class="st0" d="M458,279v7.3h7.6v1.6H458v15.9c0,2.3,0.2,3.9,0.5,4.8s1.1,1.3,2.5,1.3c1,0,2-0.3,3-1s1.7-1.7,2.2-3.2h1.4
		c-1,4.2-4,6.2-9,6.2c-2.1,0-3.6-0.4-4.6-1.1c-1-0.8-1.6-1.7-1.8-2.8c-0.2-1.1-0.3-2.6-0.3-4.5V288H446v-1.6h5.7v-6.8
		C453.8,279.5,455.9,279.3,458,279z"/>
	<path class="st0" d="M501.6,297h-16.3c-0.2,6.3,0.2,10.2,1.1,11.7s2.4,2.2,4.6,2.2c4.5,0,7.6-2.6,9.2-7.9h1.4c-0.7,3.2-2,5.6-4,7.1
		s-4.2,2.3-6.6,2.3c-3.5,0-6.5-1.3-9-3.8c-2.6-2.6-3.8-5.8-3.8-9.7c0-3.8,1.2-6.9,3.7-9.5s5.4-3.9,8.7-3.9c2.9,0,5.4,1,7.5,3.1
		C500.3,290.6,501.5,293.4,501.6,297z M485.4,295.5h9.4c0.2-1.5,0.3-2.7,0.3-3.5c0-3.4-1.6-5.1-4.7-5.1c-1.5,0-2.8,0.4-3.6,1.2
		c-0.9,0.8-1.3,1.9-1.3,3.4L485.4,295.5L485.4,295.5z"/>
	<path class="st0" d="M516.3,309.9v-39.8h-4.6v-1.6h4.4c3,0,5.1-0.2,6.5-0.5v42h4.5v1.6h-15.4V310h4.6V309.9z"/>
</g>
<line class="st1" x1="67" y1="331.7" x2="529" y2="331.7"/>
</svg>
